<svg width="110" height="110" viewBox="0 0 110 110" fill="none" xmlns="http://www.w3.org/2000/svg">
<path fill-rule="evenodd" clip-rule="evenodd" d="M0 102.22L11.2252 82.4362C6.25954 74.3742 3.38779 64.883 3.38779 54.7211C3.38779 25.4935 27.083 1.7998 56.3091 1.7998C85.5381 1.7998 109.23 25.4935 109.23 54.7211C109.23 83.9486 85.5381 107.641 56.3091 107.641C44.1053 107.641 32.8741 103.499 23.9228 96.5599L23.9406 96.5822L0 102.22Z" fill="#33DF90"/>
<path d="M51.7497 73.6487C51.2997 74.1013 50.6858 74.3538 50.0481 74.3538C49.4104 74.3538 48.7965 74.1013 48.3465 73.6487L34.7574 60.0574C33.3471 58.6471 33.3471 56.3603 34.7574 54.9527L36.459 53.2507C37.8697 51.8404 40.1538 51.8404 41.5641 53.2507L50.0481 61.7351L72.9731 38.8096C74.3838 37.3994 76.6702 37.3994 78.0783 38.8096L79.7798 40.5116C81.1901 41.9219 81.1901 44.2083 79.7798 45.6163L51.7497 73.6487Z" fill="white"/>
</svg>
