<svg width="120" height="32" viewBox="0 0 120 32" fill="none" xmlns="http://www.w3.org/2000/svg">
<path d="M20.0608 31.0962V24.4162H8.27142V0.481445H0V31.0962H20.0608Z" fill="white"/>
<path d="M38.7186 31.5152C43.5907 31.5152 47.2902 30.175 49.817 27.4946C52.3438 24.8143 53.6072 20.8984 53.6072 15.7471C53.6072 10.5818 52.3508 6.666 49.8379 3.9996C47.3251 1.3332 43.6326 0 38.7605 0C33.9024 0 30.1994 1.34367 27.6517 4.03101C25.1039 6.71835 23.8301 10.6098 23.8301 15.7052C23.8301 20.8565 25.1109 24.7794 27.6726 27.4737C30.2343 30.168 33.9163 31.5152 38.7186 31.5152Z" fill="#33DF90"/>
<path d="M72.8092 31.5153C77.1089 31.5153 81.0527 30.901 84.6404 29.6725V13.1716H71.4271V19.5584H76.8925V24.3537C75.8595 24.591 74.7287 24.7097 73.5002 24.7097C71.2526 24.7097 69.532 23.9593 68.3384 22.4586C67.1448 20.9579 66.548 18.7766 66.548 15.9147C66.548 12.9971 67.2077 10.753 68.5269 9.18243C69.8461 7.61191 71.7133 6.82665 74.1284 6.82665C76.7669 6.82665 79.189 7.3711 81.3947 8.45999L84.0122 1.9685C82.7419 1.41009 81.2516 0.949405 79.5415 0.58644C77.8314 0.223475 76.013 0.0419922 74.0865 0.0419922C69.005 0.0419922 65.0543 1.41707 62.2343 4.16723C59.4144 6.91739 58.0044 10.7634 58.0044 15.7053C58.0044 20.7729 59.2922 24.6748 61.8679 27.411C64.4435 30.1472 68.0906 31.5153 72.8092 31.5153Z" fill="white"/>
<path fill-rule="evenodd" clip-rule="evenodd" d="M115.737 27.4946C113.21 30.175 109.511 31.5152 104.639 31.5152C99.8362 31.5152 96.1542 30.168 93.5925 27.4737C91.0308 24.7794 89.75 20.8565 89.75 15.7052C89.75 10.6098 91.0239 6.71835 93.5716 4.03101C96.1193 1.34367 99.8223 0 104.68 0C109.553 0 113.245 1.3332 115.758 3.9996C118.271 6.666 119.527 10.5818 119.527 15.7471C119.527 20.8984 118.264 24.8143 115.737 27.4946ZM98.4612 15.7471C98.4612 21.6662 100.52 24.6258 104.639 24.6258C106.733 24.6258 108.286 23.9068 109.298 22.4689C110.31 21.031 110.816 18.7904 110.816 15.7471C110.816 12.6898 110.303 10.4318 109.277 8.97292C108.251 7.51408 106.719 6.78466 104.68 6.78466C100.534 6.78466 98.4612 9.77214 98.4612 15.7471Z" fill="white"/>
</svg>
