<svg width="38" height="20" viewBox="0 0 38 20" fill="none" xmlns="http://www.w3.org/2000/svg">
<path d="M34 0C31.9322 0 30.25 1.68217 30.25 3.75C30.25 4.58875 30.5366 5.356 31.0037 5.98133L24.8877 12.6177C24.6017 12.5476 24.3073 12.5 24 12.5C23.2323 12.5 22.5192 12.7335 21.9242 13.1308L17.5629 9.86083C17.6736 9.50758 17.75 9.13925 17.75 8.75C17.75 6.68217 16.0678 5 14 5C11.9322 5 10.25 6.68217 10.25 8.75C10.25 9.13925 10.3264 9.50758 10.4371 9.86083L6.07583 13.1308C5.48083 12.7335 4.76767 12.5 4 12.5C1.93217 12.5 0.25 14.1822 0.25 16.25C0.25 18.3178 1.93217 20 4 20C6.06783 20 7.75 18.3178 7.75 16.25C7.75 15.8608 7.67358 15.4924 7.56292 15.1392L11.9242 11.8692C12.5191 12.2665 13.2323 12.5 14 12.5C14.7677 12.5 15.4808 12.2665 16.0758 11.8692L20.4371 15.1392C20.3264 15.4924 20.25 15.8608 20.25 16.25C20.25 18.3178 21.9322 20 24 20C26.0678 20 27.75 18.3178 27.75 16.25C27.75 15.4113 27.4634 14.644 26.9963 14.0187L33.1123 7.38233C33.3983 7.45242 33.6927 7.5 34 7.5C36.0678 7.5 37.75 5.81783 37.75 3.75C37.75 1.68217 36.0678 0 34 0Z" fill="white"/>
</svg>
