<svg width="35" height="40" viewBox="0 0 35 40" fill="none" xmlns="http://www.w3.org/2000/svg">
<path fill-rule="evenodd" clip-rule="evenodd" d="M7 10.5C7 4.7103 11.7103 0 17.5 0C23.2897 0 28 4.7103 28 10.5C28 16.2897 23.2897 21 17.5 21C11.7103 21 7 16.2897 7 10.5ZM19.8333 23.3333C23.8785 23.3333 27.6894 24.9408 30.564 27.8596C33.4246 30.7641 35 34.5981 35 38.6556C35 39.2999 34.4776 39.8222 33.8333 39.8222H1.16667C0.522355 39.8222 0 39.2999 0 38.6556C0 34.5981 1.57539 30.7641 4.43598 27.8596C7.31064 24.9408 11.1216 23.3333 15.1667 23.3333H19.8333Z" fill="#37475B"/>
</svg>
